<svg width="162" height="39" viewBox="0 0 162 39" fill="none" xmlns="http://www.w3.org/2000/svg">
<rect y="0.5" width="162" height="38" rx="19" fill="#025C56"/>
<path d="M36.6668 20.1666H32.6668V24.1666H31.3335V20.1666H27.3335V18.8333H31.3335V14.8333H32.6668V18.8333H36.6668V20.1666Z" fill="white"/>
<path d="M50.3058 24.5H48.6752L52.3392 14.3182H54.1141L57.7781 24.5H56.1475L53.2689 16.1676H53.1894L50.3058 24.5ZM50.5793 20.5128H55.8691V21.8054H50.5793V20.5128ZM61.8648 24.6491C61.2483 24.6491 60.6981 24.4917 60.2142 24.1768C59.7336 23.8587 59.3558 23.4062 59.0807 22.8196C58.8089 22.2296 58.673 21.522 58.673 20.6967C58.673 19.8714 58.8106 19.1655 59.0857 18.5788C59.3641 17.9922 59.7452 17.5431 60.2291 17.2315C60.713 16.92 61.2616 16.7642 61.8747 16.7642C62.3487 16.7642 62.7298 16.8438 63.0182 17.0028C63.3099 17.1586 63.5352 17.3409 63.6943 17.5497C63.8567 17.7585 63.9827 17.9425 64.0722 18.1016H64.1617V14.3182H65.6482V24.5H64.1965V23.3118H64.0722C63.9827 23.4742 63.8534 23.6598 63.6844 23.8686C63.5187 24.0774 63.29 24.2597 62.9983 24.4155C62.7066 24.5713 62.3288 24.6491 61.8648 24.6491ZM62.1929 23.3814C62.6205 23.3814 62.9817 23.2687 63.2767 23.0433C63.575 22.8146 63.8004 22.4981 63.9529 22.0938C64.1086 21.6894 64.1865 21.2187 64.1865 20.6818C64.1865 20.1515 64.1103 19.6875 63.9578 19.2898C63.8054 18.892 63.5816 18.5821 63.2867 18.3601C62.9917 18.138 62.6271 18.027 62.1929 18.027C61.7455 18.027 61.3726 18.143 61.0743 18.375C60.776 18.607 60.5506 18.9235 60.3982 19.3246C60.249 19.7256 60.1744 20.178 60.1744 20.6818C60.1744 21.1922 60.2507 21.6513 60.4031 22.0589C60.5556 22.4666 60.781 22.7898 61.0793 23.0284C61.3809 23.2637 61.7521 23.3814 62.1929 23.3814ZM70.6285 24.6491C70.012 24.6491 69.4618 24.4917 68.9779 24.1768C68.4973 23.8587 68.1195 23.4062 67.8444 22.8196C67.5726 22.2296 67.4367 21.522 67.4367 20.6967C67.4367 19.8714 67.5742 19.1655 67.8493 18.5788C68.1278 17.9922 68.5089 17.5431 68.9928 17.2315C69.4767 16.92 70.0252 16.7642 70.6384 16.7642C71.1124 16.7642 71.4935 16.8438 71.7819 17.0028C72.0735 17.1586 72.2989 17.3409 72.458 17.5497C72.6204 17.7585 72.7464 17.9425 72.8358 18.1016H72.9253V14.3182H74.4118V24.5H72.9601V23.3118H72.8358C72.7464 23.4742 72.6171 23.6598 72.4481 23.8686C72.2823 24.0774 72.0537 24.2597 71.762 24.4155C71.4703 24.5713 71.0925 24.6491 70.6285 24.6491ZM70.9566 23.3814C71.3841 23.3814 71.7454 23.2687 72.0404 23.0433C72.3387 22.8146 72.5641 22.4981 72.7165 22.0938C72.8723 21.6894 72.9502 21.2187 72.9502 20.6818C72.9502 20.1515 72.874 19.6875 72.7215 19.2898C72.569 18.892 72.3453 18.5821 72.0503 18.3601C71.7554 18.138 71.3908 18.027 70.9566 18.027C70.5091 18.027 70.1363 18.143 69.838 18.375C69.5397 18.607 69.3143 18.9235 69.1618 19.3246C69.0127 19.7256 68.9381 20.178 68.9381 20.6818C68.9381 21.1922 69.0144 21.6513 69.1668 22.0589C69.3193 22.4666 69.5447 22.7898 69.843 23.0284C70.1446 23.2637 70.5158 23.3814 70.9566 23.3814ZM80.2385 27.3636V16.8636H81.6903V18.1016H81.8145C81.9007 17.9425 82.025 17.7585 82.1874 17.5497C82.3498 17.3409 82.5752 17.1586 82.8635 17.0028C83.1519 16.8438 83.5331 16.7642 84.007 16.7642C84.6235 16.7642 85.1737 16.92 85.6576 17.2315C86.1415 17.5431 86.521 17.9922 86.7961 18.5788C87.0745 19.1655 87.2137 19.8714 87.2137 20.6967C87.2137 21.522 87.0761 22.2296 86.801 22.8196C86.526 23.4062 86.1481 23.8587 85.6675 24.1768C85.1869 24.4917 84.6384 24.6491 84.0219 24.6491C83.5579 24.6491 83.1784 24.5713 82.8834 24.4155C82.5918 24.2597 82.3631 24.0774 82.1974 23.8686C82.0316 23.6598 81.904 23.4742 81.8145 23.3118H81.7251V27.3636H80.2385ZM81.6952 20.6818C81.6952 21.2187 81.7731 21.6894 81.9289 22.0938C82.0847 22.4981 82.31 22.8146 82.605 23.0433C82.9 23.2687 83.2613 23.3814 83.6888 23.3814C84.133 23.3814 84.5042 23.2637 84.8025 23.0284C85.1008 22.7898 85.3261 22.4666 85.4786 22.0589C85.6344 21.6513 85.7123 21.1922 85.7123 20.6818C85.7123 20.178 85.636 19.7256 85.4836 19.3246C85.3344 18.9235 85.109 18.607 84.8074 18.375C84.5091 18.143 84.1363 18.027 83.6888 18.027C83.258 18.027 82.8934 18.138 82.5951 18.3601C82.3001 18.5821 82.0764 18.892 81.9239 19.2898C81.7715 19.6875 81.6952 20.1515 81.6952 20.6818ZM91.1015 24.669C90.6176 24.669 90.1801 24.5795 89.789 24.4006C89.3979 24.2183 89.088 23.9548 88.8593 23.6101C88.6339 23.2654 88.5212 22.8428 88.5212 22.3423C88.5212 21.9115 88.6041 21.5568 88.7698 21.2784C88.9355 21 89.1592 20.7796 89.441 20.6172C89.7227 20.4548 90.0376 20.3321 90.3856 20.2493C90.7336 20.1664 91.0882 20.1035 91.4495 20.0604C91.9069 20.0073 92.2781 19.9643 92.5631 19.9311C92.8482 19.8946 93.0553 19.8366 93.1846 19.7571C93.3138 19.6776 93.3785 19.5483 93.3785 19.3693V19.3345C93.3785 18.9003 93.2558 18.5639 93.0106 18.3253C92.7686 18.0866 92.4073 17.9673 91.9268 17.9673C91.4263 17.9673 91.0319 18.0784 90.7435 18.3004C90.4585 18.5192 90.2613 18.7628 90.1519 19.0312L88.7549 18.7131C88.9206 18.2491 89.1626 17.8745 89.4807 17.5895C89.8022 17.3011 90.1718 17.0923 90.5894 16.9631C91.007 16.8305 91.4462 16.7642 91.9069 16.7642C92.2118 16.7642 92.5349 16.8007 92.8763 16.8736C93.221 16.9432 93.5425 17.0724 93.8408 17.2614C94.1424 17.4503 94.3894 17.7204 94.5816 18.0717C94.7738 18.4197 94.8699 18.8722 94.8699 19.429V24.5H93.4182V23.456H93.3586C93.2625 23.6482 93.1183 23.8371 92.926 24.0227C92.7338 24.2083 92.4869 24.3625 92.1853 24.4851C91.8837 24.6077 91.5224 24.669 91.1015 24.669ZM91.4246 23.4759C91.8356 23.4759 92.1869 23.3946 92.4786 23.2322C92.7736 23.0698 92.9973 22.8577 93.1498 22.5959C93.3055 22.3307 93.3834 22.0473 93.3834 21.7457V20.7614C93.3304 20.8144 93.2277 20.8641 93.0752 20.9105C92.926 20.9536 92.7554 20.9917 92.5631 21.0249C92.3709 21.0547 92.1836 21.0829 92.0013 21.1094C91.819 21.1326 91.6666 21.1525 91.5439 21.169C91.2556 21.2055 90.9921 21.2668 90.7535 21.353C90.5181 21.4392 90.3292 21.5634 90.1867 21.7259C90.0475 21.8849 89.9779 22.0971 89.9779 22.3622C89.9779 22.7301 90.1138 23.0085 90.3856 23.1974C90.6573 23.383 91.0037 23.4759 91.4246 23.4759ZM97.5161 27.3636C97.294 27.3636 97.0918 27.3454 96.9095 27.3089C96.7272 27.2758 96.5914 27.2393 96.5019 27.1996L96.8598 25.9815C97.1316 26.0545 97.3735 26.0859 97.5857 26.076C97.7978 26.0661 97.9851 25.9865 98.1475 25.8374C98.3132 25.6882 98.459 25.4446 98.585 25.1065L98.7689 24.5994L95.9749 16.8636H97.5658L99.4997 22.7898H99.5793L101.513 16.8636H103.109L99.9621 25.5192C99.8163 25.9169 99.6307 26.2533 99.4053 26.5284C99.1799 26.8068 98.9114 27.0156 98.5999 27.1548C98.2883 27.294 97.9271 27.3636 97.5161 27.3636ZM104.506 24.5V16.8636H105.933V18.1065H106.027C106.187 17.6856 106.447 17.3575 106.808 17.1222C107.169 16.8835 107.602 16.7642 108.106 16.7642C108.616 16.7642 109.044 16.8835 109.388 17.1222C109.736 17.3608 109.993 17.6889 110.159 18.1065H110.238C110.421 17.6989 110.711 17.3741 111.108 17.1321C111.506 16.8868 111.98 16.7642 112.53 16.7642C113.223 16.7642 113.788 16.9813 114.226 17.4155C114.666 17.8497 114.887 18.5043 114.887 19.3793V24.5H113.4V19.5185C113.4 19.0014 113.259 18.6269 112.978 18.3949C112.696 18.1629 112.36 18.0469 111.968 18.0469C111.485 18.0469 111.108 18.196 110.84 18.4943C110.571 18.7893 110.437 19.1688 110.437 19.6328V24.5H108.956V19.424C108.956 19.0097 108.826 18.6766 108.568 18.4247C108.309 18.1728 107.973 18.0469 107.559 18.0469C107.277 18.0469 107.017 18.1214 106.778 18.2706C106.543 18.4164 106.352 18.6203 106.206 18.8821C106.064 19.1439 105.993 19.4472 105.993 19.7919V24.5H104.506ZM120.17 24.6541C119.418 24.6541 118.77 24.4934 118.226 24.1719C117.686 23.8471 117.269 23.3913 116.974 22.8047C116.682 22.2147 116.536 21.5237 116.536 20.7315C116.536 19.9493 116.682 19.2599 116.974 18.6634C117.269 18.0668 117.68 17.6011 118.207 17.2663C118.737 16.9316 119.357 16.7642 120.066 16.7642C120.497 16.7642 120.914 16.8355 121.319 16.978C121.723 17.1205 122.086 17.3442 122.408 17.6491C122.729 17.9541 122.983 18.3501 123.168 18.8374C123.354 19.3213 123.447 19.9096 123.447 20.6023V21.1293H117.376V20.0156H121.99C121.99 19.6245 121.91 19.2782 121.751 18.9766C121.592 18.6716 121.369 18.4313 121.08 18.2557C120.795 18.08 120.46 17.9922 120.076 17.9922C119.658 17.9922 119.294 18.0949 118.982 18.3004C118.674 18.5026 118.435 18.7678 118.266 19.0959C118.101 19.4207 118.018 19.7737 118.018 20.1548V21.0249C118.018 21.5353 118.107 21.9695 118.286 22.3274C118.468 22.6854 118.722 22.9588 119.047 23.1477C119.372 23.3333 119.751 23.4261 120.185 23.4261C120.467 23.4261 120.724 23.3864 120.956 23.3068C121.188 23.224 121.388 23.1013 121.557 22.9389C121.726 22.7765 121.856 22.576 121.945 22.3374L123.352 22.5909C123.239 23.0052 123.037 23.3681 122.746 23.6797C122.457 23.9879 122.094 24.2282 121.657 24.4006C121.223 24.5696 120.727 24.6541 120.17 24.6541ZM126.582 19.9659V24.5H125.096V16.8636H126.523V18.1065H126.617C126.793 17.7022 127.068 17.3774 127.443 17.1321C127.82 16.8868 128.296 16.7642 128.869 16.7642C129.39 16.7642 129.845 16.8736 130.237 17.0923C130.628 17.3078 130.931 17.6293 131.146 18.0568C131.362 18.4844 131.47 19.013 131.47 19.6428V24.5H129.983V19.8217C129.983 19.2682 129.839 18.8357 129.551 18.5241C129.262 18.2093 128.866 18.0518 128.362 18.0518C128.018 18.0518 127.711 18.1264 127.443 18.2756C127.177 18.4247 126.967 18.6435 126.811 18.9318C126.659 19.2169 126.582 19.5616 126.582 19.9659ZM137.028 16.8636V18.0568H132.857V16.8636H137.028ZM133.975 15.0341H135.462V22.2578C135.462 22.5462 135.505 22.7633 135.591 22.9091C135.677 23.0516 135.788 23.1494 135.924 23.2024C136.063 23.2521 136.214 23.277 136.377 23.277C136.496 23.277 136.6 23.2687 136.69 23.2521C136.779 23.2356 136.849 23.2223 136.899 23.2124L137.167 24.4403C137.081 24.4735 136.958 24.5066 136.799 24.5398C136.64 24.5762 136.441 24.5961 136.203 24.5994C135.811 24.6061 135.447 24.5365 135.109 24.3906C134.771 24.2448 134.497 24.0194 134.288 23.7145C134.08 23.4096 133.975 23.0268 133.975 22.5661V15.0341Z" fill="white"/>
</svg>
