<svg width="78" height="31" viewBox="0 0 78 31" fill="none" xmlns="http://www.w3.org/2000/svg">
<rect x="0.5" y="0.5" width="77" height="30" rx="3.5" stroke="#BDC3C3"/>
<path d="M18.6667 19.5H21.3333V18.1667H18.6667V19.5ZM14 11.5V12.8333H26V11.5H14ZM16 16.1667H24V14.8333H16V16.1667Z" fill="#748684"/>
<path d="M37.4334 20V11.2727H42.8453V12.4062H38.7502V15.0653H42.4576V16.1946H38.7502V20H37.4334ZM44.3624 20V13.4545H45.6365V20H44.3624ZM45.0059 12.4446C44.7843 12.4446 44.5939 12.3707 44.4348 12.223C44.2786 12.0724 44.2005 11.8935 44.2005 11.6861C44.2005 11.4759 44.2786 11.2969 44.4348 11.1491C44.5939 10.9986 44.7843 10.9233 45.0059 10.9233C45.2275 10.9233 45.4164 10.9986 45.5726 11.1491C45.7317 11.2969 45.8113 11.4759 45.8113 11.6861C45.8113 11.8935 45.7317 12.0724 45.5726 12.223C45.4164 12.3707 45.2275 12.4446 45.0059 12.4446ZM48.6248 11.2727V20H47.3507V11.2727H48.6248ZM53.3944 13.4545V14.4773H49.8191V13.4545H53.3944ZM50.7779 11.8864H52.052V18.0781C52.052 18.3253 52.089 18.5114 52.1628 18.6364C52.2367 18.7585 52.3319 18.8423 52.4483 18.8878C52.5676 18.9304 52.6969 18.9517 52.8361 18.9517C52.9384 18.9517 53.0279 18.9446 53.1046 18.9304C53.1813 18.9162 53.2409 18.9048 53.2836 18.8963L53.5137 19.9489C53.4398 19.9773 53.3347 20.0057 53.1983 20.0341C53.062 20.0653 52.8915 20.0824 52.687 20.0852C52.3517 20.0909 52.0392 20.0312 51.7495 19.9062C51.4597 19.7812 51.2253 19.5881 51.0463 19.3267C50.8674 19.0653 50.7779 18.7372 50.7779 18.3423V11.8864ZM57.5545 20.1321C56.9096 20.1321 56.3542 19.9943 55.8883 19.7188C55.4252 19.4403 55.0673 19.0497 54.8145 18.5469C54.5645 18.0412 54.4395 17.4489 54.4395 16.7699C54.4395 16.0994 54.5645 15.5085 54.8145 14.9972C55.0673 14.4858 55.4196 14.0866 55.8713 13.7997C56.3258 13.5128 56.8571 13.3693 57.465 13.3693C57.8343 13.3693 58.1923 13.4304 58.5389 13.5526C58.8855 13.6747 59.1966 13.8665 59.4721 14.1278C59.7477 14.3892 59.965 14.7287 60.1241 15.1463C60.2832 15.5611 60.3627 16.0653 60.3627 16.6591V17.1108H55.1596V16.1562H59.1142C59.1142 15.821 59.046 15.5241 58.9096 15.2656C58.7733 15.0043 58.5815 14.7983 58.3343 14.6477C58.09 14.4972 57.8031 14.4219 57.4735 14.4219C57.1156 14.4219 56.8031 14.5099 56.536 14.6861C56.2718 14.8594 56.0673 15.0866 55.9224 15.3679C55.7804 15.6463 55.7093 15.9489 55.7093 16.2756V17.0213C55.7093 17.4588 55.786 17.831 55.9395 18.1378C56.0957 18.4446 56.313 18.679 56.5914 18.8409C56.8699 19 57.1951 19.0795 57.5673 19.0795C57.8088 19.0795 58.0289 19.0455 58.2278 18.9773C58.4267 18.9062 58.5985 18.8011 58.7434 18.6619C58.8883 18.5227 58.9991 18.3509 59.0758 18.1463L60.2818 18.3636C60.1852 18.7187 60.0119 19.0298 59.7619 19.2969C59.5147 19.5611 59.2037 19.767 58.8287 19.9148C58.4565 20.0597 58.0318 20.1321 57.5545 20.1321ZM61.7765 20V13.4545H63.008V14.4943H63.0762C63.1955 14.142 63.4057 13.8651 63.7069 13.6634C64.0108 13.4588 64.3546 13.3565 64.7381 13.3565C64.8176 13.3565 64.9114 13.3594 65.0194 13.3651C65.1301 13.3707 65.2168 13.3778 65.2793 13.3864V14.6051C65.2282 14.5909 65.1373 14.5753 65.0066 14.5582C64.8759 14.5384 64.7452 14.5284 64.6145 14.5284C64.3134 14.5284 64.0449 14.5923 63.8091 14.7202C63.5762 14.8452 63.3915 15.0199 63.2551 15.2443C63.1188 15.4659 63.0506 15.7187 63.0506 16.0028V20H61.7765Z" fill="#748684"/>
</svg>
