<svg width="86" height="31" viewBox="0 0 86 31" fill="none" xmlns="http://www.w3.org/2000/svg">
<rect x="0.5" y="0.5" width="85" height="30" rx="3.5" stroke="#BDC3C3"/>
<path d="M12.992 20V11.2727H18.4636V12.4062H14.3088V15.0653H18.1781V16.1946H14.3088V18.8665H18.5147V20H12.992ZM21.1259 13.4545L22.5705 16.0028L24.0279 13.4545H25.4213L23.3801 16.7273L25.4384 20H24.0449L22.5705 17.554L21.1003 20H19.7026L21.7395 16.7273L19.7282 13.4545H21.1259ZM26.7296 22.4545V13.4545H27.9739V14.5156H28.0804C28.1543 14.3793 28.2608 14.2216 28.4 14.0426C28.5392 13.8636 28.7324 13.7074 28.9796 13.5739C29.2267 13.4375 29.5534 13.3693 29.9597 13.3693C30.4881 13.3693 30.9597 13.5028 31.3745 13.7699C31.7892 14.0369 32.1145 14.4219 32.3503 14.9247C32.589 15.4276 32.7083 16.0327 32.7083 16.7401C32.7083 17.4474 32.5904 18.054 32.3546 18.5597C32.1188 19.0625 31.7949 19.4503 31.383 19.723C30.9711 19.9929 30.5009 20.1278 29.9725 20.1278C29.5748 20.1278 29.2495 20.0611 28.9966 19.9276C28.7466 19.794 28.5506 19.6378 28.4086 19.4588C28.2665 19.2798 28.1571 19.1207 28.0804 18.9815H28.0037V22.4545H26.7296ZM27.9782 16.7273C27.9782 17.1875 28.0449 17.5909 28.1784 17.9375C28.312 18.2841 28.5051 18.5554 28.758 18.7514C29.0108 18.9446 29.3205 19.0412 29.687 19.0412C30.0676 19.0412 30.3858 18.9403 30.6415 18.7386C30.8972 18.5341 31.0904 18.2571 31.2211 17.9077C31.3546 17.5582 31.4213 17.1648 31.4213 16.7273C31.4213 16.2955 31.356 15.9077 31.2253 15.5639C31.0975 15.2202 30.9043 14.9489 30.6458 14.75C30.3901 14.5511 30.0705 14.4517 29.687 14.4517C29.3176 14.4517 29.0051 14.5469 28.7495 14.7372C28.4966 14.9276 28.3049 15.1932 28.1742 15.5341C28.0435 15.875 27.9782 16.2727 27.9782 16.7273ZM36.8929 20.1321C36.2793 20.1321 35.7438 19.9915 35.2864 19.7102C34.829 19.429 34.4739 19.0355 34.2211 18.5298C33.9682 18.0241 33.8418 17.4332 33.8418 16.7571C33.8418 16.0781 33.9682 15.4844 34.2211 14.9759C34.4739 14.4673 34.829 14.0724 35.2864 13.7912C35.7438 13.5099 36.2793 13.3693 36.8929 13.3693C37.5066 13.3693 38.0421 13.5099 38.4995 13.7912C38.9569 14.0724 39.312 14.4673 39.5648 14.9759C39.8176 15.4844 39.9441 16.0781 39.9441 16.7571C39.9441 17.4332 39.8176 18.0241 39.5648 18.5298C39.312 19.0355 38.9569 19.429 38.4995 19.7102C38.0421 19.9915 37.5066 20.1321 36.8929 20.1321ZM36.8972 19.0625C37.2949 19.0625 37.6245 18.9574 37.8858 18.7472C38.1472 18.5369 38.3404 18.2571 38.4654 17.9077C38.5932 17.5582 38.6571 17.1733 38.6571 16.7528C38.6571 16.3352 38.5932 15.9517 38.4654 15.6023C38.3404 15.25 38.1472 14.9673 37.8858 14.7543C37.6245 14.5412 37.2949 14.4347 36.8972 14.4347C36.4966 14.4347 36.1642 14.5412 35.9 14.7543C35.6387 14.9673 35.4441 15.25 35.3162 15.6023C35.1912 15.9517 35.1287 16.3352 35.1287 16.7528C35.1287 17.1733 35.1912 17.5582 35.3162 17.9077C35.4441 18.2571 35.6387 18.5369 35.9 18.7472C36.1642 18.9574 36.4966 19.0625 36.8972 19.0625ZM41.3663 20V13.4545H42.5978V14.4943H42.666C42.7853 14.142 42.9956 13.8651 43.2967 13.6634C43.6007 13.4588 43.9444 13.3565 44.3279 13.3565C44.4075 13.3565 44.5012 13.3594 44.6092 13.3651C44.72 13.3707 44.8066 13.3778 44.8691 13.3864V14.6051C44.818 14.5909 44.7271 14.5753 44.5964 14.5582C44.4657 14.5384 44.335 14.5284 44.2044 14.5284C43.9032 14.5284 43.6348 14.5923 43.399 14.7202C43.166 14.8452 42.9814 15.0199 42.845 15.2443C42.7086 15.4659 42.6404 15.7187 42.6404 16.0028V20H41.3663ZM49.4139 13.4545V14.4773H45.8386V13.4545H49.4139ZM46.7974 11.8864H48.0716V18.0781C48.0716 18.3253 48.1085 18.5114 48.1824 18.6364C48.2562 18.7585 48.3514 18.8423 48.4679 18.8878C48.5872 18.9304 48.7164 18.9517 48.8556 18.9517C48.9579 18.9517 49.0474 18.9446 49.1241 18.9304C49.2008 18.9162 49.2605 18.9048 49.3031 18.8963L49.5332 19.9489C49.4593 19.9773 49.3542 20.0057 49.2179 20.0341C49.0815 20.0653 48.911 20.0824 48.7065 20.0852C48.3713 20.0909 48.0588 20.0312 47.769 19.9062C47.4792 19.7812 47.2449 19.5881 47.0659 19.3267C46.8869 19.0653 46.7974 18.7372 46.7974 18.3423V11.8864Z" fill="#748684"/>
<path d="M62.94 13.03L66 16.0834L69.06 13.03L70 13.97L66 17.97L62 13.97L62.94 13.03Z" fill="#748684"/>
</svg>
