<svg width="24" height="25" viewBox="0 0 24 25" fill="none" xmlns="http://www.w3.org/2000/svg">
<g id="fact_check">
<path id="Vector" fill-rule="evenodd" clip-rule="evenodd" d="M20 3.17657H4C2.9 3.17657 2 4.07657 2 5.17657V19.1766C2 20.2766 2.9 21.1766 4 21.1766H20C21.1 21.1766 22 20.2766 22 19.1766V5.17657C22 4.07657 21.1 3.17657 20 3.17657ZM9 17.1766H6C5.45 17.1766 5 16.7266 5 16.1766C5 15.6266 5.45 15.1766 6 15.1766H9C9.55 15.1766 10 15.6266 10 16.1766C10 16.7266 9.55 17.1766 9 17.1766ZM9 13.1766H6C5.45 13.1766 5 12.7266 5 12.1766C5 11.6266 5.45 11.1766 6 11.1766H9C9.55 11.1766 10 11.6266 10 12.1766C10 12.7266 9.55 13.1766 9 13.1766ZM9 9.17657H6C5.45 9.17657 5 8.72657 5 8.17657C5 7.62657 5.45 7.17657 6 7.17657H9C9.55 7.17657 10 7.62657 10 8.17657C10 8.72657 9.55 9.17657 9 9.17657ZM18.7 11.2966L15.53 14.4666C15.14 14.8566 14.5 14.8566 14.11 14.4666L12.7 13.0466C12.31 12.6566 12.31 12.0266 12.7 11.6366C13.09 11.2466 13.72 11.2466 14.11 11.6366L14.82 12.3466L17.29 9.87657C17.68 9.48657 18.31 9.48657 18.7 9.87657L18.71 9.88657C19.09 10.2766 19.09 10.9166 18.7 11.2966Z" fill="white" stroke="#748684"/>
</g>
</svg>