<svg width="24" height="25" viewBox="0 0 24 25" fill="none" xmlns="http://www.w3.org/2000/svg">
<g id="inbox">
<path id="Vector" d="M19 3.17657H5C3.9 3.17657 3 4.07657 3 5.17657V19.1766C3 20.2766 3.89 21.1766 5 21.1766H19C20.1 21.1766 21 20.2766 21 19.1766V5.17657C21 4.07657 20.1 3.17657 19 3.17657ZM19 19.1766H5V16.1766H8.56C9.25 17.3666 10.53 18.1766 12.01 18.1766C13.49 18.1766 14.76 17.3666 15.46 16.1766H19V19.1766ZM19 14.1766H14.01C14.01 15.2766 13.11 16.1766 12.01 16.1766C10.91 16.1766 10.01 15.2766 10.01 14.1766H5V5.17657H19V14.1766Z" fill="#748684"/>
</g>
</svg>
