<svg width="24" height="25" viewBox="0 0 24 25" fill="none" xmlns="http://www.w3.org/2000/svg">
<g id="monetization_on">
<path id="Vector" d="M12 2.17657C6.48 2.17657 2 6.65657 2 12.1766C2 17.6966 6.48 22.1766 12 22.1766C17.52 22.1766 22 17.6966 22 12.1766C22 6.65657 17.52 2.17657 12 2.17657ZM12 20.1766C7.59 20.1766 4 16.5866 4 12.1766C4 7.76657 7.59 4.17657 12 4.17657C16.41 4.17657 20 7.76657 20 12.1766C20 16.5866 16.41 20.1766 12 20.1766ZM12.31 11.3166C10.54 10.8666 9.97 10.3766 9.97 9.64657C9.97 8.80657 10.76 8.21657 12.07 8.21657C13.45 8.21657 13.97 8.87657 14.01 9.85658H15.72C15.67 8.51657 14.85 7.28657 13.23 6.88657V5.17657H10.9V6.86657C9.39 7.18657 8.18 8.16657 8.18 9.67657C8.18 11.4666 9.67 12.3666 11.84 12.8866C13.79 13.3466 14.18 14.0366 14.18 14.7566C14.18 15.2866 13.79 16.1466 12.08 16.1466C10.48 16.1466 9.85 15.4266 9.76 14.5066H8.04C8.14 16.2066 9.4 17.1666 10.9 17.4766V19.1766H13.24V17.5066C14.76 17.2166 15.96 16.3466 15.97 14.7366C15.96 12.5366 14.07 11.7766 12.31 11.3166Z" fill="#748684"/>
</g>
</svg>
