<svg width="24" height="25" viewBox="0 0 24 25" fill="none" xmlns="http://www.w3.org/2000/svg">
<g id="pie_chart">
<path id="Vector" d="M12 2.17651C6.48 2.17651 2 6.65651 2 12.1765C2 17.6965 6.48 22.1765 12 22.1765C17.52 22.1765 22 17.6965 22 12.1765C22 6.65651 17.52 2.17651 12 2.17651ZM19.93 11.1765H13V4.24651C16.61 4.69651 19.48 7.56651 19.93 11.1765ZM4 12.1765C4 8.10651 7.06 4.73651 11 4.24651V20.1065C7.06 19.6165 4 16.2465 4 12.1765ZM13 20.1065V13.1765H19.93C19.48 16.7865 16.61 19.6565 13 20.1065Z" fill="#748684"/>
</g>
</svg>
