<svg width="17" height="17" viewBox="0 0 17 17" fill="none" xmlns="http://www.w3.org/2000/svg">
<g id="visibility_on">
<path id="Vector" d="M8.50008 4.81339C10.3401 4.81339 11.8334 6.30672 11.8334 8.14672C11.8334 8.48672 11.7667 8.81339 11.6734 9.12006L13.7134 11.1601C14.6401 10.3401 15.3734 9.31339 15.8334 8.14006C14.6801 5.22006 11.8334 3.14672 8.50008 3.14672C7.65341 3.14672 6.84008 3.28006 6.07341 3.52672L7.52008 4.97339C7.83341 4.88006 8.16008 4.81339 8.50008 4.81339ZM2.30675 2.58672C2.04675 2.84672 2.04675 3.26672 2.30675 3.52672L3.62008 4.84006C2.54008 5.70006 1.68008 6.83339 1.16675 8.14672C2.32008 11.0734 5.16675 13.1467 8.50008 13.1467C9.51341 13.1467 10.4801 12.9467 11.3734 12.6001L13.1867 14.4134C13.4467 14.6734 13.8667 14.6734 14.1267 14.4134C14.3867 14.1534 14.3867 13.7334 14.1267 13.4734L3.25341 2.58672C2.99341 2.32672 2.56675 2.32672 2.30675 2.58672ZM8.50008 11.4801C6.66008 11.4801 5.16675 9.98672 5.16675 8.14672C5.16675 7.63339 5.28675 7.14672 5.49341 6.72006L6.54008 7.76672C6.52008 7.88672 6.50008 8.01339 6.50008 8.14672C6.50008 9.25339 7.39341 10.1467 8.50008 10.1467C8.63341 10.1467 8.75341 10.1267 8.88008 10.1001L9.92675 11.1467C9.49341 11.3601 9.01341 11.4801 8.50008 11.4801ZM10.4801 7.92672C10.3801 6.99339 9.64675 6.26672 8.72008 6.16672L10.4801 7.92672Z" fill="#025C56"/>
</g>
</svg>